# xmcd
#
# Track frame offsets:
#	150
#	12074
#	28132
#	52169
#	66540
#	82372
#	95217
#	107736
#	121975
#	137459
#	151724
#
# Disc length: 2247 seconds
#
# Revision: 1
# Processed by: cddbd v1.5.2PL0 Copyright (c) Steve Scherf et al.
# Submitted via: audiograbber 1.83.01
#
DISCID=9808c50b
DTITLE=Bob Muggeridge - Reflections
DYEAR=2014
DGENRE=Folk
TTITLE0=Have you Ever Seen the Rain
TTITLE1=Set Me Free
TTITLE2=Birds on the Wire
TTITLE3=It's Just a Memory
TTITLE4=Anger and Tears
TTITLE5=Going Down this Road
TTITLE6=Solid Gone
TTITLE7=Long Raod th Nowhere
TTITLE8=Knocking on Heaven's Door
TTITLE9=Merrimac Contry
TTITLE10=Celtic Melody
EXTD=
EXTT0=
EXTT1=
EXTT2=
EXTT3=
EXTT4=
EXTT5=
EXTT6=
EXTT7=
EXTT8=
EXTT9=
EXTT10=
PLAYORDER=
